<?xml version="1.0" encoding="utf-8"?>
<!-- Generator: Adobe Illustrator 27.8.0, SVG Export Plug-In . SVG Version: 6.00 Build 0)  -->
<svg version="1.1" id="Ebene_1" xmlns="http://www.w3.org/2000/svg" xmlns:xlink="http://www.w3.org/1999/xlink" x="0px" y="0px"
	 viewBox="0 0 166.4 108.1" style="enable-background:new 0 0 166.4 108.1;" xml:space="preserve" opacity="0.75">
<style type="text/css">
	.Schlagschatten{fill:none;}
	.Abgerundete_x0020_Ecken_x0020_2_x0020_Pt_x002E_{fill:#FFFFFF;stroke:#1D1D1B;stroke-miterlimit:10;}
	.Interaktiv_x0020_X_x0020_spiegeln{fill:none;}
	.Weich_x0020_abgeflachte_x0020_Kante{fill:url(#SVGID_1_);}
	.Abenddämmerung{fill:#FFFFFF;}
	.Laub_GS{fill:#FFDD00;}
	.Pompadour_GS{fill-rule:evenodd;clip-rule:evenodd;fill:#51AEE2;}
	.st0{fill:#2A3A45;}
</style>
<linearGradient id="SVGID_1_" gradientUnits="userSpaceOnUse" x1="-11.3248" y1="-366.5523" x2="-10.6177" y2="-365.8452">
	<stop  offset="0" style="stop-color:#E6E6EB"/>
	<stop  offset="0.1754" style="stop-color:#E2E2E7"/>
	<stop  offset="0.3552" style="stop-color:#D6D6DB"/>
	<stop  offset="0.5371" style="stop-color:#C2C3C6"/>
	<stop  offset="0.7204" style="stop-color:#A5A7A9"/>
	<stop  offset="0.9031" style="stop-color:#818485"/>
	<stop  offset="1" style="stop-color:#6B6E6E"/>
</linearGradient>
<path class="st0" d="M42.4,108.1H8.9c-4.7,0-8.5-3.8-8.5-8.5V8.5C0.4,3.8,4.2,0,8.9,0h33.5c4.7,0,8.5,3.8,8.5,8.5v91.1
	C50.9,104.3,47.1,108.1,42.4,108.1z M108.5,99.6V8.5c0-4.7-3.8-8.5-8.5-8.5H66.4c-4.7,0-8.5,3.8-8.5,8.5v91.1c0,4.7,3.8,8.5,8.5,8.5
	H100C104.7,108.1,108.5,104.3,108.5,99.6z M166,99.6V8.5c0-4.7-3.8-8.5-8.5-8.5H124c-4.7,0-8.5,3.8-8.5,8.5v91.1
	c0,4.7,3.8,8.5,8.5,8.5h33.5C162.2,108.1,166,104.3,166,99.6z"/>
</svg>
