<svg xmlns="http://www.w3.org/2000/svg" width="104.237" height="20" viewBox="0 0 104.237 20">
  <path id="samhammer_metis_base" d="M143.071,262.127h-6.119a1.551,1.551,0,0,1-1.553-1.553V243.935a1.551,1.551,0,0,1,1.553-1.552h6.119a1.551,1.551,0,0,1,1.553,1.552v16.639A1.551,1.551,0,0,1,143.071,262.127Zm12.073-1.553V243.935a1.551,1.551,0,0,0-1.552-1.552h-6.119a1.551,1.551,0,0,0-1.552,1.552v16.639a1.551,1.551,0,0,0,1.552,1.553h6.119A1.551,1.551,0,0,0,155.144,260.574Zm10.5,0V243.935a1.551,1.551,0,0,0-1.552-1.552h-6.119a1.551,1.551,0,0,0-1.552,1.552v16.639a1.551,1.551,0,0,0,1.552,1.553h6.119A1.551,1.551,0,0,0,165.647,260.574Zm41.1-18.155H189.756a1.368,1.368,0,0,0-1.37,1.37v6.466a1.368,1.368,0,0,0,1.37,1.37h3.324a.55.55,0,0,1,.548.548v8.584a1.368,1.368,0,0,0,1.37,1.37h6.466a1.368,1.368,0,0,0,1.37-1.37v-8.6a.53.53,0,0,1,.53-.53h3.379a1.368,1.368,0,0,0,1.37-1.37v-6.466A1.38,1.38,0,0,0,206.742,242.419Zm11.89,4.055v-2.667a1.368,1.368,0,0,0-1.37-1.37H210.8a1.368,1.368,0,0,0-1.37,1.37v2.484a1.407,1.407,0,0,0,1.406,1.406h6.63A1.239,1.239,0,0,0,218.633,246.474Zm-9.242,3.708v10.594a1.368,1.368,0,0,0,1.37,1.37h6.466a1.368,1.368,0,0,0,1.37-1.37V250.163a1.224,1.224,0,0,0-1.224-1.224H210.6A1.248,1.248,0,0,0,209.391,250.182Zm28.858-7.8h-8.2a.7.7,0,0,0-.493,1.187l.84.84,7.215,7.215.84.84a.7.7,0,0,0,1.187-.493v-8.183A1.4,1.4,0,0,0,238.249,242.383Zm-16.968,19.744h8.183a.7.7,0,0,0,.493-1.187l-.84-.84-7.215-7.215-.84-.84a.7.7,0,0,0-1.187.493v8.183A1.419,1.419,0,0,0,221.281,262.127Zm4.384-19.69h-2.521a3.258,3.258,0,0,0-3.251,3.251v.274a7.812,7.812,0,0,0,2.283,5.516L232.295,261.6a2.031,2.031,0,0,0,1.443.6h2.557a3.325,3.325,0,0,0,3.324-3.324h0a7.976,7.976,0,0,0-2.338-5.644l-10.173-10.174A1.976,1.976,0,0,0,225.665,242.437ZM185.5,242.2H168.514a1.368,1.368,0,0,0-1.37,1.37v11.105a1.381,1.381,0,0,0,.4.968c.018.018.018.037.037.055l6.667,6.21c.53.493,1.315.055,1.315-.731v-4.6a.549.549,0,0,1,.548-.548H185.5a1.368,1.368,0,0,0,1.37-1.37V243.57A1.356,1.356,0,0,0,185.5,242.2Z" transform="translate(-135.4 -242.2)" fill="#303a4e" opacity="0.75"/>
</svg>
